<svg viewBox="0 0 400 400" xmlns="http://www.w3.org/2000/svg"><defs><radialGradient id="t1" cx="40%" cy="35%"><stop offset="0%" stop-color="#f4756a" stop-opacity="0.95"/><stop offset="45%" stop-color="#e84233" stop-opacity="0.9"/><stop offset="100%" stop-color="#8b1a1a" stop-opacity="0.55"/></radialGradient><radialGradient id="t2" cx="38%" cy="32%"><stop offset="0%" stop-color="#f08060" stop-opacity="0.9"/><stop offset="50%" stop-color="#d43828" stop-opacity="0.85"/><stop offset="100%" stop-color="#7a1515" stop-opacity="0.5"/></radialGradient><radialGradient id="hl" cx="30%" cy="25%"><stop offset="0%" stop-color="#fff" stop-opacity="0.4"/><stop offset="100%" stop-color="#fff" stop-opacity="0"/></radialGradient><linearGradient id="lf" x1="0%" y1="0%" x2="100%" y2="100%"><stop offset="0%" stop-color="#6aaa4a" stop-opacity="0.85"/><stop offset="100%" stop-color="#3d7a2d" stop-opacity="0.7"/></linearGradient></defs><path d="M200 70 C195 90,175 110,160 130 C150 142,148 150,155 148" stroke="#4a7a3a" stroke-width="2.8" fill="none" stroke-linecap="round"/><path d="M200 70 C210 95,235 120,250 148" stroke="#4a7a3a" stroke-width="2.5" fill="none" stroke-linecap="round"/><path d="M200 70 C198 100,195 130,192 160" stroke="#4a7a3a" stroke-width="2.2" fill="none" stroke-linecap="round"/><path d="M200 70 C188 62,175 52,170 46 C168 42,172 40,176 44 C182 50,190 64,200 70" fill="url(#lf)"/><path d="M200 70 C214 60,228 50,234 44 C237 40,234 38,230 42 C224 48,212 62,200 70" fill="url(#lf)" opacity="0.85"/><ellipse cx="170" cy="172" rx="32" ry="30" fill="url(#t1)"/><ellipse cx="160" cy="162" rx="14" ry="11" fill="url(#hl)"/><path d="M170 142 C165 136,158 138,162 144 C156 138,150 142,156 146 L170 143 L184 146 C190 142,184 138,178 144Z" fill="#4a8a3a" opacity="0.7"/><ellipse cx="245" cy="165" rx="28" ry="27" fill="url(#t2)"/><ellipse cx="236" cy="156" rx="12" ry="10" fill="url(#hl)"/><ellipse cx="198" cy="215" rx="35" ry="33" fill="url(#t1)" opacity="0.92"/><ellipse cx="187" cy="204" rx="15" ry="12" fill="url(#hl)"/><ellipse cx="252" cy="215" rx="24" ry="23" fill="#e8a030" opacity="0.8"/><ellipse cx="140" cy="210" rx="22" ry="21" fill="url(#t2)" opacity="0.8"/><text x="200" y="330" text-anchor="middle" font-family="Georgia,serif" font-size="20" fill="#3d5a3d" opacity="0.6" font-style="italic">Solanum lycopersicum</text></svg>