<svg viewBox="0 0 400 400" xmlns="http://www.w3.org/2000/svg"><defs><linearGradient id="au1" x1="20%" y1="0%" x2="80%" y2="100%"><stop offset="0%" stop-color="#5a2878" stop-opacity="0.92"/><stop offset="100%" stop-color="#2d1040" stop-opacity="0.82"/></linearGradient></defs><path d="M195 85 Q172 105,162 145 Q152 195,160 245 Q168 282,190 295 Q210 302,222 282 Q238 248,242 195 Q244 145,230 110 Q220 88,205 85Z" fill="url(#au1)"/><path d="M200 85 C194 72,188 60,192 52 C195 46,202 48,206 54 C210 48,218 46,220 54 C224 62,215 72,208 80Z" fill="#3d7a3d" opacity="0.8"/><text x="200" y="355" text-anchor="middle" font-family="Georgia,serif" font-size="20" fill="#3d5a3d" opacity="0.6" font-style="italic">Solanum melongena</text></svg>