<svg viewBox="0 0 400 400" xmlns="http://www.w3.org/2000/svg"><defs><linearGradient id="tu" x1="0%" y1="0%" x2="0%" y2="100%"><stop offset="0%" stop-color="#e84060" stop-opacity="0.88"/><stop offset="100%" stop-color="#c82040" stop-opacity="0.8"/></linearGradient></defs><path d="M192 75 C188 50,192 25,200 20 C208 25,212 50,208 75Z" fill="url(#tu)"/><path d="M178 85 C168 60,170 32,182 25 C188 35,184 62,182 82Z" fill="#d83858" opacity="0.82"/><path d="M222 85 C232 60,230 32,218 25 C212 35,216 62,218 82Z" fill="#d83858" opacity="0.82"/><path d="M165 100 C148 78,145 48,162 38 C170 52,168 78,168 98Z" fill="#e85878" opacity="0.68"/><path d="M235 100 C252 78,255 48,238 38 C230 52,232 78,232 98Z" fill="#e85878" opacity="0.68"/><line x1="200" y1="110" x2="200" y2="270" stroke="#5a7a3a" stroke-width="3"/><text x="200" y="330" text-anchor="middle" font-family="Georgia,serif" font-size="20" fill="#3d5a3d" opacity="0.6" font-style="italic">Tulipa gesneriana</text></svg>