<svg viewBox="0 0 400 400" xmlns="http://www.w3.org/2000/svg"><defs><linearGradient id="ch1" x1="0%" y1="0%" x2="20%" y2="100%"><stop offset="0%" stop-color="#e63526" stop-opacity="0.95"/><stop offset="100%" stop-color="#8b1a1a" stop-opacity="0.8"/></linearGradient><linearGradient id="ch2" x1="0%" y1="0%" x2="20%" y2="100%"><stop offset="0%" stop-color="#e8a020" stop-opacity="0.9"/><stop offset="100%" stop-color="#c87010" stop-opacity="0.8"/></linearGradient><linearGradient id="ch3" x1="0%" y1="0%" x2="20%" y2="100%"><stop offset="0%" stop-color="#d44020" stop-opacity="0.9"/><stop offset="100%" stop-color="#6a1010" stop-opacity="0.75"/></linearGradient><linearGradient id="lf2" x1="0%" y1="0%" x2="100%" y2="100%"><stop offset="0%" stop-color="#5a9a3a" stop-opacity="0.8"/><stop offset="100%" stop-color="#3a7020" stop-opacity="0.65"/></linearGradient></defs><path d="M200 60 L200 120" stroke="#5a8a3a" stroke-width="2.5" stroke-linecap="round"/><path d="M200 80 C185 72,172 60,175 52 C178 46,186 52,192 62" fill="url(#lf2)"/><path d="M200 80 C215 72,228 60,225 52 C222 46,214 52,208 62" fill="url(#lf2)" opacity="0.85"/><path d="M188 118 Q182 145,178 175 Q175 210,185 240 Q192 258,198 245 Q208 215,205 180 Q202 145,195 118Z" fill="url(#ch1)"/><path d="M210 118 Q220 145,228 180 Q235 215,225 250 Q218 265,212 250 Q205 220,208 185Z" fill="url(#ch2)" transform="rotate(8 210 180)"/><path d="M168 122 Q158 150,148 185 Q140 225,152 260 Q158 272,165 258 Q172 230,168 195Z" fill="url(#ch3)" transform="rotate(-10 168 190)"/><text x="200" y="330" text-anchor="middle" font-family="Georgia,serif" font-size="20" fill="#3d5a3d" opacity="0.6" font-style="italic">Capsicum annuum</text></svg>