<svg viewBox="0 0 400 400" xmlns="http://www.w3.org/2000/svg"><defs><radialGradient id="dh" cx="50%" cy="45%"><stop offset="0%" stop-color="#e84060" stop-opacity="0.92"/><stop offset="60%" stop-color="#c82848" stop-opacity="0.85"/><stop offset="100%" stop-color="#a01838" stop-opacity="0.65"/></radialGradient></defs><line x1="200" y1="270" x2="200" y2="145" stroke="#5a7a3a" stroke-width="3"/><circle cx="200" cy="130" r="10" fill="#e8c020" opacity="0.88"/><path d="M200 120 Q188 95,182 78 Q180 68,190 76 Q185 62,196 70 Q194 58,200 68 Q206 58,204 70 Q215 62,210 76 Q220 68,218 78 Q212 95,200 120Z" fill="url(#dh)"/><path d="M190 120 Q168 108,158 92 Q152 82,162 88 Q155 75,168 82 Q170 72,176 82Z" fill="#d83858" opacity="0.8"/><path d="M210 120 Q232 108,242 92 Q248 82,238 88 Q245 75,232 82 Q230 72,224 82Z" fill="#d83858" opacity="0.8"/><text x="200" y="335" text-anchor="middle" font-family="Georgia,serif" font-size="20" fill="#3d5a3d" opacity="0.6" font-style="italic">Dahlia variabilis</text></svg>