<svg viewBox="0 0 400 400" xmlns="http://www.w3.org/2000/svg"><defs><radialGradient id="hb" cx="50%" cy="50%"><stop offset="0%" stop-color="#5aaa4f" stop-opacity="0.82"/><stop offset="100%" stop-color="#2d6a2d" stop-opacity="0.6"/></radialGradient></defs><line x1="200" y1="290" x2="200" y2="110" stroke="#5a7a3a" stroke-width="3" stroke-linecap="round"/><path d="M200 110 C178 100,165 80,172 65 C180 75,192 78,200 72 C208 78,220 75,228 65 C235 80,222 100,200 110Z" fill="url(#hb)"/><path d="M200 150 C172 140,155 118,165 100" stroke="#4a8b3f" stroke-width="2.2" fill="none"/><path d="M165 100 C155 85,162 72,175 78" fill="#5aaa4f" opacity="0.55"/><path d="M200 150 C228 140,245 118,235 100" stroke="#4a8b3f" stroke-width="2.2" fill="none"/><path d="M235 100 C245 85,238 72,225 78" fill="#3d8a35" opacity="0.55"/><text x="200" y="345" text-anchor="middle" font-family="Georgia,serif" font-size="20" fill="#3d5a3d" opacity="0.6" font-style="italic">Ocimum basilicum</text></svg>