<svg viewBox="0 0 400 400" xmlns="http://www.w3.org/2000/svg"><defs><linearGradient id="sw1" x1="0%" y1="0%" x2="100%" y2="100%"><stop offset="0%" stop-color="#c870b8" stop-opacity="0.88"/><stop offset="100%" stop-color="#8a3878" stop-opacity="0.72"/></linearGradient></defs><path d="M200 280 C200 240,195 200,185 170 C175 140,160 115,155 100" stroke="#5a7a3a" stroke-width="2.5" fill="none" stroke-linecap="round"/><path d="M155 100 C145 85,142 70,150 65 C158 60,162 72,160 88Z" fill="url(#sw1)"/><path d="M155 100 C148 88,155 72,165 70 C172 68,172 80,165 92Z" fill="#d880c8" opacity="0.8"/><path d="M185 170 C175 155,165 148,160 152 C155 158,165 168,178 172" fill="url(#sw1)" opacity="0.7"/><path d="M200 280 C200 250,210 215,225 185" stroke="#5a7a3a" stroke-width="2" fill="none"/><path d="M225 185 C230 172,240 168,245 175 C248 182,238 188,228 186" fill="url(#sw1)" opacity="0.6"/><text x="200" y="340" text-anchor="middle" font-family="Georgia,serif" font-size="20" fill="#3d5a3d" opacity="0.6" font-style="italic">Lathyrus odoratus</text></svg>