<svg viewBox="0 0 400 400" xmlns="http://www.w3.org/2000/svg"><defs><linearGradient id="cr" x1="0%" y1="0%" x2="0%" y2="100%"><stop offset="0%" stop-color="#e88030" stop-opacity="0.95"/><stop offset="100%" stop-color="#c45520" stop-opacity="0.85"/></linearGradient></defs><path d="M200 95 Q220 105,225 140 Q228 180,222 225 Q218 260,210 285 Q204 298,200 302 Q196 298,190 285 Q182 260,178 225 Q172 180,175 140 Q180 105,200 95Z" fill="url(#cr)"/><path d="M200 95 C192 75,182 58,175 45 C172 38,178 36,182 42" fill="#4a8a3a" opacity="0.75"/><path d="M200 95 C208 75,218 58,225 45 C228 38,222 36,218 42" fill="#5a9a4a" opacity="0.7"/><path d="M200 95 C200 78,200 60,202 42" fill="#4a8a3a" opacity="0.65"/><text x="200" y="355" text-anchor="middle" font-family="Georgia,serif" font-size="20" fill="#3d5a3d" opacity="0.6" font-style="italic">Daucus carota</text></svg>