<svg viewBox="0 0 400 400" xmlns="http://www.w3.org/2000/svg"><defs><radialGradient id="sl1" cx="50%" cy="55%"><stop offset="0%" stop-color="#b8e060" stop-opacity="0.85"/><stop offset="100%" stop-color="#4a8b3f" stop-opacity="0.7"/></radialGradient></defs><path d="M200 280 C155 275,115 245,125 200 C130 175,150 162,168 170 C155 148,160 120,182 112 C198 106,212 118,218 138 C228 115,248 108,265 122 C282 136,275 165,258 178 C280 188,288 215,272 240 C258 262,230 275,200 280Z" fill="url(#sl1)"/><path d="M200 280 C195 248,192 215,196 185 C198 162,200 142,200 125" stroke="#5a9a3a" stroke-width="2.5" fill="none" opacity="0.45"/><text x="200" y="340" text-anchor="middle" font-family="Georgia,serif" font-size="20" fill="#3d5a3d" opacity="0.6" font-style="italic">Lactuca sativa</text></svg>